<?xml version="1.0" encoding="UTF-8" standalone="no"?>
<svg
   xmlns:dc="http://purl.org/dc/elements/1.1/"
   xmlns:cc="http://creativecommons.org/ns#"
   xmlns:rdf="http://www.w3.org/1999/02/22-rdf-syntax-ns#"
   xmlns:svg="http://www.w3.org/2000/svg"
   xmlns="http://www.w3.org/2000/svg"
   xmlns:sodipodi="http://sodipodi.sourceforge.net/DTD/sodipodi-0.dtd"
   xmlns:inkscape="http://www.inkscape.org/namespaces/inkscape"
   id="Layer_1"
   data-name="Layer 1"
   viewBox="0 0 354.03 318.58"
   version="1.1"
   sodipodi:docname="bmsc-logo.svg"
   inkscape:version="0.92.5 (2060ec1f9f, 2020-04-08)">
  <metadata
     id="metadata367">
    <rdf:RDF>
      <cc:Work
         rdf:about="">
        <dc:format>image/svg+xml</dc:format>
        <dc:type
           rdf:resource="http://purl.org/dc/dcmitype/StillImage" />
      </cc:Work>
    </rdf:RDF>
  </metadata>
  <sodipodi:namedview
     pagecolor="#ffffff"
     bordercolor="#666666"
     borderopacity="1"
     objecttolerance="10"
     gridtolerance="10"
     guidetolerance="10"
     inkscape:pageopacity="0"
     inkscape:pageshadow="2"
     inkscape:window-width="2989"
     inkscape:window-height="1599"
     id="namedview365"
     showgrid="false"
     inkscape:zoom="4"
     inkscape:cx="176.765"
     inkscape:cy="156.59016"
     inkscape:window-x="0"
     inkscape:window-y="54"
     inkscape:window-maximized="0"
     inkscape:current-layer="Layer_1" />
  <defs
     id="defs10">
    <style
       id="style2">.cls-1,.cls-13,.cls-2,.cls-28,.cls-29,.cls-30,.cls-31,.cls-32{fill:none;}.cls-10,.cls-11,.cls-12,.cls-13,.cls-2,.cls-23,.cls-26,.cls-27,.cls-28,.cls-29,.cls-30,.cls-31,.cls-32,.cls-33,.cls-7,.cls-9{stroke:#1d1d1b;stroke-miterlimit:10;}.cls-11,.cls-12,.cls-2,.cls-23,.cls-27,.cls-33{stroke-width:0.21px;}.cls-23,.cls-3{fill:#ff5100;}.cls-26,.cls-4{fill:#0055b8;}.cls-5{clip-path:url(#clip-path);}.cls-6{fill:#b6c7ea;}.cls-7{fill:#bc4700;}.cls-10,.cls-13,.cls-7,.cls-9{stroke-width:0.23px;}.cls-33,.cls-8,.cls-9{fill:#1d1d1b;}.cls-10{fill:#20201f;}.cls-11{fill:#ffad78;}.cls-12,.cls-14{fill:#fff;}.cls-15{fill:#ffc6a0;}.cls-16{fill:#ff9d5f;}.cls-17{fill:#ff9451;}.cls-18{fill:#ff8438;}.cls-19{fill:#ff7011;}.cls-20{fill:#ffe6d5;}.cls-21{fill:#ff6700;}.cls-22{fill:#ffceac;}.cls-24{fill:#e8f3fd;}.cls-25{clip-path:url(#clip-path-2);}.cls-26,.cls-28,.cls-32{stroke-linecap:round;}.cls-26{stroke-width:0.82px;}.cls-27{fill:#f9fafc;}.cls-28{stroke-width:0.39px;}.cls-29{stroke-width:0.19px;}.cls-30{stroke-width:0.58px;}.cls-31{stroke-width:0.78px;}.cls-32{stroke-width:1.17px;}</style>
    <clipPath
       id="clip-path"
       transform="translate(-150.08 -238.4)">
      <circle
         class="cls-1"
         cx="287.35"
         cy="400.45"
         r="90.49"
         id="circle4" />
    </clipPath>
    <clipPath
       id="clip-path-2"
       transform="translate(-150.08 -238.4)">
      <path
         class="cls-2"
         d="M424.46,446c-15.28-66.41-101-161.75-143.43-166.18,0,0,22.25-18,33.42-17.75,75.84,1.81,159.24,127.32,123.82,174C430.53,446.27,424.63,446.76,424.46,446Z"
         id="path7" />
    </clipPath>
  </defs>
  <path
     class="cls-3"
     d="M178.27,491.15a135.79,135.79,0,0,1-7.39-13,137.18,137.18,0,0,1-14.06-73.24,123.7,123.7,0,0,0,21.63,106.16C176.75,503.68,176.75,496.69,178.27,491.15Z"
     transform="translate(-150.08 -238.4)"
     id="path12" />
  <path
     class="cls-3"
     d="M186.8,480.19c-1.66-2.17-3.26-4.42-4.78-6.75a109.31,109.31,0,0,1-17.78-56.72,98.17,98.17,0,0,0,15,67.4c.38.59.79,1.15,1.19,1.73A12.93,12.93,0,0,1,186.8,480.19Z"
     transform="translate(-150.08 -238.4)"
     id="path14" />
  <path
     class="cls-3"
     d="M367.3,476.26a100.33,100.33,0,0,0,28.09-58.15A89.52,89.52,0,0,1,376.09,478a90.65,90.65,0,0,1-11.88,12.38A30.37,30.37,0,0,0,367.3,476.26Z"
     transform="translate(-150.08 -238.4)"
     id="path16" />
  <path
     class="cls-3"
     d="M362.86,467.19q2.26-1.95,4.41-4.09a79.45,79.45,0,0,0,21.09-37.71,71.33,71.33,0,0,1-20.73,45.71c-.36.36-.74.7-1.11,1.06A9.43,9.43,0,0,0,362.86,467.19Z"
     transform="translate(-150.08 -238.4)"
     id="path18" />
  <path
     class="cls-4"
     d="M208.12,506l-6.46-5.66,1.74-2a5.24,5.24,0,0,0,1.3-2,1.23,1.23,0,0,0-.5-1.1,1.38,1.38,0,0,0-1.39-.32,3.94,3.94,0,0,0-1.69,1.27,5.89,5.89,0,0,0-1.4,2.34,6.94,6.94,0,0,0,.53,3.36q2.24,6.82,1.89,9.65c-.23,1.88-1.49,4.14-3.78,6.76A13.57,13.57,0,0,1,194,522a7,7,0,0,1-4.58,0,13.77,13.77,0,0,1-5.27-3,13.36,13.36,0,0,1-3.84-5.24,6.88,6.88,0,0,1-.23-5,18.53,18.53,0,0,1,3.46-5.18l1.53-1.75,6.46,5.66-2.85,3.26a5.76,5.76,0,0,0-1.42,2.17,1.42,1.42,0,0,0,.59,1.28,1.51,1.51,0,0,0,1.51.35,4,4,0,0,0,1.76-1.32c1.38-1.57,2.07-2.79,2.06-3.66a26.58,26.58,0,0,0-1.13-5.28,43.83,43.83,0,0,1-1.25-5.5,7.73,7.73,0,0,1,.48-3.37,16.5,16.5,0,0,1,7.24-7.8,7.06,7.06,0,0,1,4.48,0,13.43,13.43,0,0,1,4.94,2.91,14.55,14.55,0,0,1,3.85,4.92,6.46,6.46,0,0,1,.6,4.42,15.43,15.43,0,0,1-3.34,5.06Z"
     transform="translate(-150.08 -238.4)"
     id="path20"
     style="fill:#ffffff;fill-opacity:1;opacity:1" />
  <path
     class="cls-4"
     d="M225.05,528.17q-2.72,4.62-4.06,6.42a8.53,8.53,0,0,1-8,3.34,13.1,13.1,0,0,1-5.05-1.81,13.54,13.54,0,0,1-3.95-3.4,8.57,8.57,0,0,1-1.11-8.61,74.34,74.34,0,0,1,3.67-6.77l3.08-5.25q2.7-4.62,4.05-6.42a8.54,8.54,0,0,1,3.43-2.71,8.4,8.4,0,0,1,4.53-.63,13.1,13.1,0,0,1,5,1.81,13.54,13.54,0,0,1,4,3.4,8.57,8.57,0,0,1,1.11,8.61,76.15,76.15,0,0,1-3.66,6.77ZM223,513.41a11.15,11.15,0,0,0,1.37-2.88,1.11,1.11,0,0,0-.63-1.17,1.26,1.26,0,0,0-1.24-.08,7.85,7.85,0,0,0-2,2.66l-8.4,14.33a16.23,16.23,0,0,0-1.72,3.42,1.1,1.1,0,0,0,.65,1.22,1.12,1.12,0,0,0,1.46-.11,17.32,17.32,0,0,0,2.24-3.29Z"
     transform="translate(-150.08 -238.4)"
     id="path22"
     style="fill:#ffffff;fill-opacity:1;opacity:1" />
  <path
     class="cls-4"
     d="M252.9,516.5,246,551.78l-8.91-3.17,1.68-6.19-3.12-1.11-2.67,5.84-9-3.21L240.3,512Zm-12.29,19.9q1.37-5.92,3.68-14.55-4.75,9.15-6.68,13.48Z"
     transform="translate(-150.08 -238.4)"
     id="path24"
     style="fill:#ffffff;fill-opacity:1;opacity:1" />
  <path
     class="cls-4"
     d="M258.53,518.29l6.47,1a50.62,50.62,0,0,1,8.68,1.88,6.13,6.13,0,0,1,3.33,3.13q1.13,2.28.42,6.77c-.43,2.74-1.06,4.52-1.89,5.36s-2.25,1.18-4.28,1.06a6.89,6.89,0,0,1,3.36,2.37,5.37,5.37,0,0,1,.84,2.26,33,33,0,0,1-.59,5.23l-1.45,9.27-8.49-1.33,1.84-11.68a8.3,8.3,0,0,0,.1-3.56c-.23-.5-1-.84-2.23-1l-2.49,15.84L253,553.43Zm8.2,7.45-1.23,7.81a4.07,4.07,0,0,0,2.23-.09c.45-.21.8-1.1,1-2.64l.31-1.94a2.94,2.94,0,0,0-.26-2.28A3.38,3.38,0,0,0,266.73,525.74Z"
     transform="translate(-150.08 -238.4)"
     id="path26"
     style="fill:#ffffff;fill-opacity:1;opacity:1" />
  <path
     class="cls-4"
     d="M291.39,521.41,291.08,557l-9.24-.08.3-35.57Z"
     transform="translate(-150.08 -238.4)"
     id="path28"
     style="fill:#ffffff;fill-opacity:1;opacity:1" />
  <path
     class="cls-4"
     d="M315.11,518.71l5,35.21-8,1.15-7.05-15.33,2.29,16-7.66,1.09-5-35.21,7.66-1.09,7.39,15.12-2.26-15.86Z"
     transform="translate(-150.08 -238.4)"
     id="path30"
     style="fill:#ffffff;fill-opacity:1;opacity:1" />
  <path
     class="cls-4"
     d="M342,523.46l-8.73,3.06-1.07-3a16.06,16.06,0,0,0-1.51-3.52,1.38,1.38,0,0,0-2.32.69,10.78,10.78,0,0,0,.83,3.3l5.64,16.11a10.19,10.19,0,0,0,1.33,2.87,1.19,1.19,0,0,0,1.41.31,1.35,1.35,0,0,0,1-1.26,10.45,10.45,0,0,0-.76-3.27l-1.4-4-1.76.61-1.79-5.1,10.23-3.58,6.3,18L344,546.59l-1.65-2.12a6.36,6.36,0,0,1-1.44,3.12,6.65,6.65,0,0,1-2.93,1.9,8.81,8.81,0,0,1-4.49.38,8.47,8.47,0,0,1-3.85-1.63,8.86,8.86,0,0,1-2.4-2.87,41.22,41.22,0,0,1-2.06-5.11l-3.5-10a35.35,35.35,0,0,1-1.92-7.17,7.56,7.56,0,0,1,1.57-5,11.06,11.06,0,0,1,5.73-4,12.49,12.49,0,0,1,6.91-.66,8,8,0,0,1,4.61,2.59,21,21,0,0,1,3,6Z"
     transform="translate(-150.08 -238.4)"
     id="path32"
     style="fill:#ffffff;fill-opacity:1;opacity:1" />
  <path
     class="cls-4"
     d="M374.23,506.52l-7.61,5.25-3.51-5.1a11.25,11.25,0,0,0-2.16-2.6,1.28,1.28,0,0,0-1.45.19,1.37,1.37,0,0,0-.73,1.5,12.46,12.46,0,0,0,1.74,3.06l9.37,13.61a11.53,11.53,0,0,0,2.18,2.61,1.57,1.57,0,0,0,2.25-1.55,13,13,0,0,0-1.85-3.25l-2.54-3.68,7.62-5.25.78,1.14a27.57,27.57,0,0,1,3.81,6.89,8,8,0,0,1-.55,5.29,11.71,11.71,0,0,1-4.43,5.17,13.61,13.61,0,0,1-6.35,2.59,7.18,7.18,0,0,1-5.19-1.37,26.87,26.87,0,0,1-5.15-6l-5.9-8.55a46.74,46.74,0,0,1-3.05-4.9,7.92,7.92,0,0,1-.81-3.94,8.73,8.73,0,0,1,1.39-4.36,13.19,13.19,0,0,1,3.81-3.87,13,13,0,0,1,6.45-2.52,7.55,7.55,0,0,1,5.11,1.26,23.41,23.41,0,0,1,4.85,5.56Z"
     transform="translate(-150.08 -238.4)"
     id="path34"
     style="fill:#ffffff;fill-opacity:1;opacity:1" />
  <path
     class="cls-4"
     d="M373.9,485.38l19.8,20.44,4-3.92,5,5.12L392,517.37l-24.75-25.55Z"
     transform="translate(-150.08 -238.4)"
     id="path36"
     style="fill:#ffffff;fill-opacity:1;opacity:1" />
  <path
     class="cls-4"
     d="M391.6,463.5l19.13,14.12a40.59,40.59,0,0,1,4.41,3.58,7.78,7.78,0,0,1,1.78,3.25,8.13,8.13,0,0,1,.07,4.3,12.77,12.77,0,0,1-2.25,4.55,14,14,0,0,1-4.19,3.9,8.49,8.49,0,0,1-4.37,1.31,7.73,7.73,0,0,1-3.72-1q-1.65-.94-6.49-4.52L379,480.52l5.49-7.44L406,488.92a10.65,10.65,0,0,0,2.54,1.56,1,1,0,0,0,1.13-.43,1.08,1.08,0,0,0,.1-1.34,13.23,13.23,0,0,0-2.56-2.2l-21.09-15.57Z"
     transform="translate(-150.08 -238.4)"
     id="path38"
     style="fill:#ffffff;fill-opacity:1;opacity:1" />
  <path
     class="cls-4"
     d="M392.88,461.36l3.94-8.34a24.45,24.45,0,0,1,3.43-5.7,6.6,6.6,0,0,1,4.05-2.12c1.64-.24,3.86.29,6.64,1.6q2.82,1.33,3.51,2.74a6.78,6.78,0,0,1,.06,4.29q2-2.59,4-2.91a9.29,9.29,0,0,1,5.15,1.17l3,1.4a13.18,13.18,0,0,1,4.48,3,4.43,4.43,0,0,1,1,3.38q-.19,1.91-2.57,7l-4.56,9.68Zm9.45-5.77,7.15,3.37c.16-.36.28-.64.38-.84.38-.82.43-1.44.13-1.86a11.14,11.14,0,0,0-3.31-2,6.34,6.34,0,0,0-2.24-.72,1.47,1.47,0,0,0-1.11.37A7.12,7.12,0,0,0,402.33,455.59Zm12.16,5.74,9,4.24a3.92,3.92,0,0,0,.51-2.52c-.18-.48-.92-1-2.21-1.64l-3-1.41c-1.38-.65-2.29-.9-2.71-.75S415.12,460.1,414.49,461.33Z"
     transform="translate(-150.08 -238.4)"
     id="path40"
     style="fill:#ffffff;fill-opacity:1;opacity:1" />
  <g
     class="cls-5"
     clip-path="url(#clip-path)"
     id="g76">
    <rect
       class="cls-6"
       x="13.42"
       y="53.93"
       width="244.53"
       height="209.84"
       id="rect42" />
    <path
       class="cls-7"
       d="M294.58,447s1.83-.51,2.13-1.61,1.09-.59,1.53-1.1a11.14,11.14,0,0,1,1.83-1.76c.81-.58,1.1-1.24,1.76-1.1a4.88,4.88,0,0,1,1.69.44c1,.44,2.27,1.61,2.19,2.2s.15.88,1,1.54A3.82,3.82,0,0,1,308,448.2c0,.73.59,2.42.52,3a14.72,14.72,0,0,0,.29,2,10.54,10.54,0,0,0,.22,1.54,10.48,10.48,0,0,1,1.39,1.61,1.91,1.91,0,0,0,1.17,1.83c1.17.51,4,1.24,3.81,2.42s3.07,2,3.59,2.85.44,3.37,1.31,4.18a7.29,7.29,0,0,1,2.2,2.85c.29,1,.59,2.27.59,2.27s1.83,3.3,1.75,4,.55,1.53.48,2.7,1.5,2.42.92,3.67a17.93,17.93,0,0,1-3.37,4.24c-.22-.07-7.62.08-7.62.08l-2.63-5.64s-3.67-9.67-3.67-9.89-8.56-7.83-8.56-7.83l-2.86-7.62-1-3.81Z"
       transform="translate(-150.08 -238.4)"
       id="path44" />
    <path
       class="cls-8"
       d="M300.24,444.63s-1.21.83-.49,1.54,1.15,1,1.2,2,1.1,2.91.66,3.07-.77,0-.66,1.1.83.93,1.05,2.25.71,2.42.55,3.13-1.1-1-1.27.5,3.79.27,4.62,1,1.53,1.26,1.53,1.81,1.27,1.48,1.16,1.81,1.53-.87,1.81.5-.22,1.26-.06,1.54,1.16.33,1.16,1.2a4.69,4.69,0,0,1-.17,1.38l-1.81-2.86s-.27-1.15-.66-1.15-1.7-1.43-2-1.76-2.08-2.36-3.29-2.25-2.91-.33-3.24-1a6.4,6.4,0,0,1-.6-2.75,4.25,4.25,0,0,0-.94-3.08c-.77-.65-1.43-1.64-.82-2s1.15-1.7.11-2.25-1.76-.82-1.54-1.15,1.15-1.92,1.76-2S300,444.36,300.24,444.63Z"
       transform="translate(-150.08 -238.4)"
       id="path46" />
    <path
       class="cls-3"
       d="M302.11,446.44s1.21-.76,1.1-.33.65.11.76-.16-.6-.71-.65-1.21.82-1.48.82-1.48.77-.39.71.71.66.83.72,1.54-.5,1.43.11,2.09A1.39,1.39,0,0,1,306,449s.22.33-.22.93a7.08,7.08,0,0,0-1.05,1.76c-.11.44-1.92,1-1.86,1.26s0,.83,1.09.77,2.15-.55,2.09-.11-.44.44-.11,1.6a7.56,7.56,0,0,1,.28,2.19s1,.83,1.15-.71.27-2.47.66-2.14a2.36,2.36,0,0,1,.38,1.81c-.05.66.28,1-.77,1.59a7.92,7.92,0,0,1-2.3.66c-.33.11-2.75,1.21-3,.33s-.33-2.58.49-2.58,2.8-.93,2-1.37a3.6,3.6,0,0,0-1.86-.28c-.44-.05-1.16-.38-1-.55a1.22,1.22,0,0,0-.44-1.43c-.61-.43-.66-.65-.17-1s0-.22.55-1.05,2-.33,1.87-1.1-1.65.77-1.48-1S301.94,446.72,302.11,446.44Z"
       transform="translate(-150.08 -238.4)"
       id="path48" />
    <path
       class="cls-9"
       d="M290.41,441a6.52,6.52,0,0,1,2.34,1.83,10.34,10.34,0,0,1,1.47,2.49,14,14,0,0,0,1.68,2.13c.73.87,1.9,1.46,1.83,2s-.66,2.42.44,3.52a4.6,4.6,0,0,1,1.32,3c-.07.29-.37.15-.37,1.54s4.47,3.37,4.47,3.81.07.51,1.61,1.39,3.44.88,3.44,1.83.15,1.32,1.1,2.34a10,10,0,0,1,2.27,3.51,9,9,0,0,0,.95,2.42,16.7,16.7,0,0,1,.66,3.3l.44,2.85s-.22-.95,1.39,1.32a11.35,11.35,0,0,1,1.91,4.61l-1.25,2.79s-10.4,1.75-10.54,1.39-3-8.57-3-8.57l-6.07-7.84-2.57-10.25-4.32-7.61-1.17-9.67Z"
       transform="translate(-150.08 -238.4)"
       id="path50" />
    <path
       class="cls-7"
       d="M265.81,423.09s1.68-2,2.63-2.2,1.69-1.61,2.35-1.69.73-1.61,3.44-1.46c.8-.37.58-.81.58-.81s-.44-1.09.15-1.46-.95-1.24,0-2.05,3.07-2.12,3.66-2.05,1.17.95,2.05.81,1.68.29,2.42-.3,2.63-1.46,3.22-.58a5.18,5.18,0,0,0,1.54,1.9c.95.73,1.68,2.12,1.17,2.42s-.29.95-.15,1.17a5.88,5.88,0,0,1,1.39,1.68c.37.88,1.91.44,2,1.32s.07,2.34.07,2.34.52,2.27.3,2.49-1.54.74-1.18,1,1-.08,1,.51,1,2.71,1,3.37-.44,2.85-.51,3.14-1.47,1.32-1.39,1.84,1,1.46.95,1.75.07,2.13-.07,2.71a11.71,11.71,0,0,0-.74,2.56c0,.81-.29,1.62-.22,1.84s.74.65.81,1.46a5.52,5.52,0,0,1-.66,2.12c-.15.52.07,2.2-.07,2.57a5.2,5.2,0,0,0,.36,2c.15.52-.58,2.93.66,3.08s2.71.36,2.64.95.8,1.83.8,2.78-1.61,1.83-.58,2.27,2.27.52,2.2,1.39a10.88,10.88,0,0,0,.21,2.35s-1.46.58-.58,3.22,1.46,3.88,1.61,4.69,3.73,2.92,4.76,5.34a24.44,24.44,0,0,1,1.68,4.69c-.07.22,1,4.46,1,5.2s-.22,2.78-.22,2.78-10.84,1.9-11.13,1.54-12.6-18.82-12.6-18.82L273.13,462s-.37-10.47-.37-10.69-1.1-15.09-1.1-15.09l-1.31-6.73Z"
       transform="translate(-150.08 -238.4)"
       id="path52" />
    <path
       class="cls-9"
       d="M276.24,454.79l-1.15-2.52-.06-2.64-1.26-3.19-.22-2.47.38-1.81.11-4L273,435.08l-.44-1.87.65-1,.72-.88-1-1.43,1-1.7v-2.09l-.77-1.2s-1.59-.61-1.92-.77-2-.33-2.14-.72-2.09-1-1.21-1.48,2-.44,2.47-1.21a3.7,3.7,0,0,1,1.65-1.43c.66-.33.55-1,1.43-1s2-.11,2.2-.55-.33-1.1.22-1.65-.5-1.15-.44-1.65,0-.93,1.09-1.26,1.43-1.32,1.82-1.32.49.33,1,.55a8.45,8.45,0,0,0,1.7.33,4.07,4.07,0,0,0,1.65.05c.82-.16,1.7-1.31,2.42-1.37a3.54,3.54,0,0,1,1.1.06l.6,1-1.48.33a3.66,3.66,0,0,0-1.93.16,3.41,3.41,0,0,1-1.81.22s-.44.17-1.86.55-.39,2-1.05,2.31.33,1.21.33,1.21,4,1.32,3.24,1.92-.49.88-.38,2.31-.28,2.63-1.21,2.69-4.72-.77-5.27-.17,1.75,1.76,1.7,2.31.38,1.7-.22,2.14-.11,2-.39,2.09,0,.33-.32,1-.66,1.59-.5,1.81.66.93.28,1.43-1.27,1.64-.72,1.81.72,1.7.72,1.7l-.5,1-.05,1.76a6,6,0,0,0,.11,1.1c.11.49.77.65.55,1.37s-1.21,1.65-.55,2.25,3.79.88,3.79.88l-3.41.11s-.66,1-.16,1.1,3.46-.44,3.4,0-.27.33-.33.77-.11,1.26-.11,1.48a1.4,1.4,0,0,0,.61,1.15c.6.55-1.05.33-1.54.28s-.94-.17-1,.27c0,0,0,1,1.33.79.89-.12,3-.22,4.16-.27l.87,0s-4.54.3-4.54.92-1.23,2.64-.13,3.37,4.67-.3,4.67.25-.86.43-.86.43.8-.62.12,1-2,2.21-1.29,2.7a3.14,3.14,0,0,1,.92,1.66s2.83.18,2.83,1.1-1.29,1.17-1.29,1.17l.92.3,3.12-.18,1.11-.06s-2,.55-1.32.61a17.89,17.89,0,0,0,2.8-.37l-2,.8s-2.15.8-1.35,1.48a3.72,3.72,0,0,0,1.72.79l-.06.8.31.68,2.14,1.9.31,1.84,5.15,1.6s1.35-.07,1.48.61-.74.92-.31,1.23a7.32,7.32,0,0,1,1,1l1.48-.18L297,479l4.23-.86-4.6,1.53s-1.41,1.35,1.47,1.66,1.17.06,2.58,1.47a7,7,0,0,1,1.78,3s1.41,3.25.55,4.11-5.83,1-5.83,1l-10.49-18.2-7.37-2.82L274.86,464l.74-4.12.64-5.12h0"
       transform="translate(-150.08 -238.4)"
       id="path54" />
    <path
       class="cls-3"
       d="M288,414.23s.73-.11.58.62a7.25,7.25,0,0,1-.66,1.68,6.26,6.26,0,0,1-.18,1.94c-.26.84,0,.84.18,1.36a1.59,1.59,0,0,1-.4,1.46c-.26.11-.33.33.15.44s.58.4.47.4-.88,0-.66.11,1.25-.18,1.1,0-.88.51-.84.84-.51.84-.26.77-1.13,1.21-.91,1.43,1.79-.15,2.16-.44,1.87-1.32,2-.92-.62.59-.62.59-1.72,0-.88.77.77.95,1.17.8.92.11.59.41-1.69.55-1.39.88a3.34,3.34,0,0,0,1.21.58,4.73,4.73,0,0,1-.41.92c-.18.25.66.88.55.95s.4.69.18.88-.65.44-.47.58.73,1,.44,1.06-.59.77,0,.81.69.4.44.44-.44.11-.44.37-.18,1.9.25,1.9,1,.11.88.62a13.42,13.42,0,0,0,0,1.65c-.08.37-.37,1.5-.44,1.65a9.66,9.66,0,0,0-.22,1.24s.18.88-.33,1.21.18,1.35.29,1.5-.51.73-.77.51a4.46,4.46,0,0,0-3-.47c-1.07.33-2.09.73-2.09.73s0,1.21-.7,1.21-5.05.91-5.05.91,2.05-.25,2.13-1-.26-.84.54-.73,1.58-.18,1.62-.7,1.9-.36,1.64-1.2-.95-1.91-1.61-1.76-.29,1.65-1,1.46-.36-1.06-.51-1.53-1-.92-.11-1,2.71-1,2.75-1.61-.48-1.84-.37-2a1.91,1.91,0,0,0-.26-1.76c-.51-.58-1.17-1.28-1.64-.95s-.66,1-1.47.73-1.32-.36-1.61.15,0,.77-.8.88-1.83.22-2.13.22l-2,0s1.28-.7,1.72-.59.59-.29,1.06-.84.51-1,1.5-.92.92-.29,1.47-.47a3.61,3.61,0,0,1,1.5-.33c1-.08,1,.58,1.21-.22s.73-1.06.11-1.43-1,.22-1.72.07-1.73.81-1.87.44-.33-.8.14-.91,1.21,0,1.73-.52,1-.32,1.42-.58.22-1.43.92-1.72,1.35-.15,1.5-.59.73,0,1.43-.55,1.61-1.13.95-1a7,7,0,0,1-1.54.11s-2,.77-2.71.37-.69-1.61-.22-1.39.73.91,1.1.18-.15-1-.4-1.06-.62-.44-.4-.59.65.37,1.42-.47a5.65,5.65,0,0,0,.92-1.36c.36-.51.88-.25.8-1.17s.26-1.5.08-1.9a4.28,4.28,0,0,1,.25-2.2c.22-.58-.51-1.72-.07-1.9A2,2,0,0,1,288,414.23Z"
       transform="translate(-150.08 -238.4)"
       id="path56" />
    <path
       class="cls-7"
       d="M235.34,441.83s1.76-7.91,2.27-8.64-1.68-3.44-1.24-4.83,1.39-1.91,1.54-2.78.29-1.54.36-2.06-.36-1.31.59-1.61,2.27-1.39,3-1.61a2,2,0,0,0,1.54-1.75c.07-1,.66-1.1,1-1.4s2.79-2.41,3.81-2.71,1.47-.73,1.54-1.39.59-2.05.95-2.19,0-1.39-.07-1.76-.22-1.17.29-1.39c.15-.95,0-2.42,1.54-2.56s3.15-.22,3.15.29-1.1,1.24-.37,1.32,2,.29,2,.8,1.17.73,1,1.17.08,1.47.74,1.47,1.83.51,1.75,1.46a7.35,7.35,0,0,0,1,3.37c.29.22.29,1,.14,1.47.15.87,1.39.87,1.17,1.39s-.51,1.09.44,1.31,2.35.88,2.27,1.47.59,1.1,1.1,1.61.66,1.1,1.47,1.32a32.24,32.24,0,0,1,3.88,1.46,2,2,0,0,1,1.09,2.2,22.57,22.57,0,0,0,.08,2.71s.95.66.88,1.32.22,1.53-.22,1.61-1.32.29-1.17.66a9.71,9.71,0,0,1,.8,1.75c0,.37.88,2.49.88,3.23a30.37,30.37,0,0,1,.07,3.73c-.14.88.08,2-.22,2.12a1.34,1.34,0,0,0-.51,1.1c0,.44,1.39,3.52,1.61,4.32s-.14,3.22.59,4.1,1.1,3.81,1.1,4.62-.3,3.29-.22,3.8,2.92,1.1,3.73,2.42,2,4.61,3,5.56,5.06,1,5.57,2.06,1.68,3.14,2,3.8,2.93,3.08,4.11,5.06,2.63,4,3.51,10.17-51.92-2.93-51.92-2.93l-1.17-6.59-5.12-17.35-11-14.06Z"
       transform="translate(-150.08 -238.4)"
       id="path58" />
    <path
       class="cls-8"
       d="M243.73,462.48c-.17-.27-4.28-3.62-4.28-3.9s-2.2-5.82-2.2-5.82l-.83-8.29.77-7.58.5-3s.66-1,.6-1.48a15,15,0,0,0-.88-2.09c0-.22-1-1.53-.44-2.25s1.71-1.54,1.76-2.2.44-2.08.44-2.52-.15-1.19.55-1.21,1.37-.77,1.59-.88,2.2-.88,2.36-1.26.33-1.59.72-2a19.1,19.1,0,0,1,2-1.48c.5-.33,1.38-1.48,1.82-1.59s1.7-.28,1.81-1a2.41,2.41,0,0,1,.71-1.43,7.13,7.13,0,0,0,1.05-1.76c.22-.55-.83-1.81-.44-2.52s.16-.66.22-1,.16-1.21.66-1.32.55-.22.55-.22-.94.77-.77,1.05.66,1.37.55,1.54-.39,1-.06,1.31.06,1.43.55,1.65.22,1.43.05,1.54-.87.49-.82.66-.22.88-.55.93-.82.06-1,.72a2.54,2.54,0,0,1-.5.93,14.5,14.5,0,0,1-1.09,1.81c-.39.44-1.49.77-1.6,1.32s-.49.88-.49,1.32-.61.88-.22,1.43a3.41,3.41,0,0,0,1.48.87s-2,.11-1.76.5.5.6.61.82-.61.77-1.59.94-2.48,1-2.42,1.59-.82,2-.66,2.25.82.6.77.82-.06,1-.11,1.16-.88.93.27,1,.55.6.39.65-.82-.49-.61.55.5,2-.16,2.91-1.15,1.76-.55,2.48,2.25,1.2,1.65,1.37-1.26-.88-1.87-.39a1.23,1.23,0,0,0-.33,1.49c.17.22,1.26,1.37,1.26,1.37s-1.31-.38-1.37-.11.06,1.87.06,1.87a8.76,8.76,0,0,1-.28,2,20.54,20.54,0,0,0-.55,3s-.66,1.37-.16,1.75a10.71,10.71,0,0,1,.82.72l-.71,1.37s-1.21.77.11.93,1.92.17,2,.5a6.55,6.55,0,0,0,.23.62c0,.11,2.23,0,2.28.15s-3.31.57-3.27.68,4.27-.42,3.71,0-2.14.2-2.17.59c0,0,0,.19.05.5.1,1,.36,3.08.7,3.25s1.76.83,1.76.83a1.94,1.94,0,0,0,.34,1.38c.44.44.88.83.88.83s-.17.77,0,1-.66,2.1-.38,2.27,1.54,1.32,1.54,1.76-.61,2.6-.44,2.87,1.38.94,1.44,1.33.77-.28.77.82.33,1,.55,1.82-1.18.36-.72,1.66-.22,1.93.39,3.09a11.85,11.85,0,0,1,.72,3.7l-.83.6-3.31-1.71Z"
       transform="translate(-150.08 -238.4)"
       id="path60" />
    <path
       class="cls-3"
       d="M252.74,413.53a27.37,27.37,0,0,1,4.28.18,1.83,1.83,0,0,0,1,.15,1.79,1.79,0,0,1,1.14.58c.44.48.18,1.36.95,1.54s.84.33.95.7a3.35,3.35,0,0,0,.81.95s.65,1.83,0,2-.81,1.17-1.94,1.24a36.71,36.71,0,0,0-4.1.95c-.7.15-4.54.37-4.54.37s-.92-.7.14-.77,2.57-.22,2.64-.58-.55-1-1.32-1.4-2.12.26-2.16,0-.66-1.46-1.21-1.17-1.31.33-1.53.81,0,1,0,1.76-.29,1.5.15,1.5,1.06.22.91.47-1.94.66-1.5.77-.07.7-.07.7l-.63.91s-2.45.66-2.59.73-1.87,1.69-1.43,2.16,1.53.26,1.68.52a6.06,6.06,0,0,0,2.93.58c.84-.11,5.24-1.24,5.64-1.17s.84.4.55.51a25.92,25.92,0,0,0-3,2.49c0,.15.62.66,1.06.48a30.46,30.46,0,0,1,4.57-.59c0,.11-.14.66-.66.63a11.3,11.3,0,0,0-3.69.66c-.66.4-1.17.65-1.14.76a11.73,11.73,0,0,1-.77,1.25c-.18.36-.77,1.39,1,.69S253,433,254.64,433s2.89-1,3.59-1a1,1,0,0,1,1,.76c0,.15.73-.47.77-.84s-3.26-1.17-2.45-1.5.77-.69,2.05-.55a7.3,7.3,0,0,0,2.6.15,5,5,0,0,1,1.68,0s-1.5.62-1.61.73.59.77.59.77a14.66,14.66,0,0,0,2.71-.22,2.52,2.52,0,0,1,2.3.77s.52,1.36-.25,1.72a4,4,0,0,0-1.54,1.17c0,.19-.7.55-1.39.74s-1.39.58-.81.91a8.53,8.53,0,0,0,1.76.59l-.66.73s-2.27.73-2.12.88-.33.29.44,1.17.8,1.1.51,1.32-1.83.29-2.45,1a1.87,1.87,0,0,0-.52,1.28,3.56,3.56,0,0,0-.4,1.32c0,.44-.18.88.59,1.54s.4,1.1,1.06,1.17,1.39.19,1.43.41.62-.85.69-.52-.18,1.47-.29,1.39a8,8,0,0,0-2.31.63,3.12,3.12,0,0,1-2.12.84,2.84,2.84,0,0,0-1.83.33c.07.07,1.54.91,1.54,1.21s-2.05-.15-2.24.18.62.22,1.69,1,1.53,2.08,1.35,2.27.29,1.57.29,1.57a4.15,4.15,0,0,0,.77-2.38c0-1.32-.25-2.16.41-2.67s1-1.06,2.16-1-.3,1.75.07,2.52a3.82,3.82,0,0,1,.15,2.05,12.41,12.41,0,0,0,0,2.13c.07-.11,0-2.68,1.35-3.15s1.57.22,1.54-.95-.51-1.76.4-1.91,2,.15,2-.77.14-.73.29-1.28-.37-1.1-.18-2S268,445,268,444.32s-1.36-.77-2-1-1.36-.63-1.14-1.14.15-2.05,1-2.05,1.79.15,2.23-.15a6.24,6.24,0,0,1,1.68-.47c.52-.15.37-.88.81-1.54s0-2.05.22-2.31.84-1.24.25-1.31-1.79-1.84-1.09-2.05,1.09-.33,1.9-.55,1.1,0,1.06-.77-1.28-2.16-.47-2.42,1.06-.91.87-1.28-.11-1.32-.8-1.47-.88-.73-1.39-.87a13.54,13.54,0,0,1-2.6-.74,10.6,10.6,0,0,1-1.54-1.31c-.15,0-1.5-1-1.54-1.69s0-1.17-.95-1.28-1.87.07-1.94-.55a5.31,5.31,0,0,0-.26-1.43c-.14-.33-1.09-1.39-1.09-1.9s-1-2.38-.81-3.11.07-1.69-.44-2-1.39.11-1.72-.73-.11-1-.48-1.58-.76-1.31-1.35-1.46-1.24,0-1.46-.18-.48-.74-.15-1,0-.8-.7-.77-1.2-.07-1.53.57-.55.57-.3,1.19.52.7.33,1.28-.44.48-.14,1.1a4.5,4.5,0,0,1,.4,1.32c.07.36,0-.08.22.8s.66.77.11,1.32S252.59,413.38,252.74,413.53Z"
       transform="translate(-150.08 -238.4)"
       id="path62" />
    <path
       class="cls-3"
       d="M243.14,430.15c.22,0,.66-.36,1.14.59a1.86,1.86,0,0,0,1.39,1.21c.4.07,1.46.47,1.43.8s-.74.55,0,.92a1.94,1.94,0,0,1,1.1,1.35c.22.55.84.84,2,.81a3.82,3.82,0,0,1,2.31.4c.47.33-.37.18-1.36.58a11.16,11.16,0,0,0-1.35.63,25.71,25.71,0,0,0,3,0c1.75-.07-.59.77-.85.77s-.47.88-.47.88a10.78,10.78,0,0,0-3,.33c-.84.37,0,.44.11.73s1.35.66.77,1.14-1,.33-.88.69,1.46.44,1.28,1-1.17.29-.44.69,1.36,1.17,1,1.39-.84.08-.59.66,1.5.88.63,1.36-.88.91-.7,1,.15.29-.84,1-.51.22.55,1,1.86-.84,2-.22-1.65,1.65-1.68,1.79,2,.41.18.84-3.81-.25-3.66-1.13-.7-1.87-1-1.39.11,1.87-.36,2.16-4.25,1.24-4.36.73.4-.44.66-1-.7-.51-.73-1.39a18.36,18.36,0,0,1,.44-2.82,7.82,7.82,0,0,1,.88-2.86c.36-.36.11-1.68.07-1.94s1.32-.22.88-.77-1.1-.25-1-1.17.81-1.83.55-2.47-.15-1,.11-1.26a1.56,1.56,0,0,0,.44-1.21c0-.7.59-1.47.55-2.31s-.86-1.19-.51-1.5.07-1.3.07-1.3S242.92,430.19,243.14,430.15Z"
       transform="translate(-150.08 -238.4)"
       id="path64" />
    <path
       class="cls-3"
       d="M254.57,479.28a2.7,2.7,0,0,0-1.29-2.08c-1.35-1.06-1.46-1.69-1.42-2.35s-.19-1.64.36-1.86,1.54-.81,1.58-1.21-2.24-.11-3.08-.22-.91-.62-.77-.84-.07-1.21.19-1.83,1.2-.77,1-1.28-1.14-.41-1.17-1.07-.59-3-.48-3.25,2.53-.48,2.49-1.07,1.13-.58,1.43-1,1.43-.74,1.46-1.14,1.1-1.65,1.25-2.16a1.75,1.75,0,0,0-.59-1.72c-.47-.22-3.7-1.43-3.88-1.83s-2.12-.84-2.2-.29-.47,1.72-.51,2.45a3.32,3.32,0,0,1-.18,1.13c-.08.19-.92.88-.84,1.25s-.33.29-.55.95-.41,1.9-.11,2.27a5.47,5.47,0,0,0,1.68.81s-.84.14-.8.55.44.87.29,1.24-.59.73-.55,1.13.77,1.1.91,1.47.55.8.52.95-.19,1.39-.33,2.6,2.08,1.14,2.16,1.79a3.21,3.21,0,0,1,0,1.07l.37.55s.91,2.49.29,2.63-1.39,0-.92,1,.19,1,.77,1.86-.07,1.18,1.07,1.32,2.19.33,1.94-.55A1.76,1.76,0,0,1,254.57,479.28Z"
       transform="translate(-150.08 -238.4)"
       id="path66" />
    <path
       class="cls-7"
       d="M204.52,433s3.07-1.46,3.44-2.34a2.93,2.93,0,0,1,1.24-1.39c.37-.3.59-1.47,1.25-1.69s2.2-1.76,1.68-2a8,8,0,0,1-2-1c-.08-.22-1.32.29-1.47,0s-.8-2.71-.58-3,.8-.66.21-1a3.59,3.59,0,0,1-.8-2.85,17.81,17.81,0,0,1,.59-2.2c.21-.29-.66-1.83.14-2.27s.51-1.76,1.1-1.9,1.39-2.13,2-2.2.29-1.61.29-2.05a3.89,3.89,0,0,1,1.32-2.2,20.89,20.89,0,0,0,2.56-2.05c.59-.51,1.9-.29,2.34-.29s.59-.73,1.91-.73,4.54-.37,5-.37,1,2.12,2.12,2.27,2.05,1.25,2.56,1.54.74,1.83.52,2.34-.15,1.91-1.69,1.61c.22.95.51,2.13.15,2.13s-.44.14,0,1.09,1.54,2.57,1.46,3-.36.58-.29,1,.37,2.2.44,2.49,1.32,2.63,1.1,3.73c.44,1.69.51,3.66,1,4s.59,1.83.59,1.83a19.66,19.66,0,0,1,1.24,3.07c.07.66.51,3.37,1.17,3.3s2.13.07,2.34.51-.36,4.1-.21,4.83-.3,7-.15,8.06,1.61,9,2.49,9.59,2.49,3,3.22,3.37,2.71,1.83,2.78,3.15a10.75,10.75,0,0,1,0,3.51c-.29.81,1.32,6,1.47,6.59a18.38,18.38,0,0,0,1.17,5.13,21,21,0,0,1,1.32,5.42l-31.78,7-10.84-15.45-2.42-17.65.66-16.26Z"
       transform="translate(-150.08 -238.4)"
       id="path68" />
    <path
       class="cls-10"
       d="M209.46,421.73s2-.88,3.4.17c1,.27,2.86.38,3,1.09.87.44,2,0,2.91.06s1.31-.44,2.8-.33,2.52-.06,2.58.88-1.05,1.65,0,2.14,1.82.38,1.93.88a8.1,8.1,0,0,1,.21,1.7c-.05.17-2.14.22-2.36.55s.44.66.44.66l-5,.05,6.86.28s-.21.22.06.88,1.43,1.48.38,1.43-5.43.43-5.43.43h5.82s1.37-.16,1.87.55,1.53,1.54,1.09,1.82-2.63-.22-2.52.66,1.15,1.86.93,2.08.77.5.77.5.11.77-.88,1.15-3.24.77-3.46.93-2.91-.05-1.81.88a3.73,3.73,0,0,0,2,1s-1.49.66-.77.93,1.76,1.1,1.43,1.16-.77.93-.39,1.15,1.21.77,1.21.77,1.54,1.26.66,1.21-1.37.55-1.15.66,1.81.44,1.81.44-.22.16.38.87,2.35,1.3,1.89,1.34-1.28,1.25-.62,1.69a2.78,2.78,0,0,1,1.09,1.7c0,.22-1.37.49-1.53,1.54s-.06,2.08-1.21,2.52-1.81-.11-1.76,1a14.87,14.87,0,0,0,.77,2.53,5.21,5.21,0,0,1-1.37-.16,16.61,16.61,0,0,0-3.46-2.47c-1.21-.44-2.53-.88-3.08-1.65s-.05-2.36-.27-3a6.41,6.41,0,0,1-.39-2.09c0-.77-.88-.71-.38-1.43a2,2,0,0,0,.16-1.65s-.16-1.48-.38-1.64a4.21,4.21,0,0,1-1.1-2.09c.05-.6-1.48-1.1-1.48-1.1s0-1.32-.39-1.7-.93-.93-1.59-1.59.33-1.21.66-1.49-.94-2.69-1.54-3.57a4,4,0,0,1-.77-2.25c.11-.16-.33-2.3-1.21-2.52s-1-.72-.71-1.05.44-1.26,1.15-1.86,2-1.82,2.36-2.09,1.93-.06,1.93-.06-1.89-.27-2.09-.82-2.11-.59-1.87-1.1-1.48-.05-1.48-.38S207.87,421.68,209.46,421.73Z"
       transform="translate(-150.08 -238.4)"
       id="path70" />
    <path
       class="cls-3"
       d="M216.17,403s1-.57,1.39.05.68.47,1.09.83,2,2.33,2.54,1.87-.68-2.39.51-2a7.09,7.09,0,0,0,2.39.51c1.55.16.1.68,2.33.94s2.74-.21,2.89.36.52,2.79-.2,2.9-.52.51-2.07.26-2.38-.52-1.66.25,2.74,1.14,2.59,1.66-1.61.83-.93,1.45.93.05.93.88.88,1.19.46,1.76-1.13.78-1.13,1.4-.57,2,.2,2.38,1.56.67,1.61,1,.77.37.93,1.25,1.86,2.43.62,2.9a13.5,13.5,0,0,0-2.9,1.81s.1.77.62.77,2.64-.51,2.69-.2,0-.11.57.67,1,1.81.68,2.38,1.46,1.8,1.14,2.36.12,2.6.33,3,1.93.73,2.14,1.1c0,0,1.25-.73,1.1.15s-.44,2.59-.44,2.59-.11,3.43-.17,3.9.09,2.67,0,4.17.77,2.69,0,3.57-5,2.23-5,2.23.31-1.4-.42-1.87-1.29.37-1.76-.51-1.55-1-1.81-2.33,0-.52.05-2.13-.72-1.45-.2-2.17a18.4,18.4,0,0,1,2.48-2.23s-1,.78-1.55.52-1-1.71,0-2.12,4.4-1.66,4.4-1.66-3.68,1.25-3.63.88,0-1.55-.15-1.55-.73-1.14,0-1.4,1.09-.67,1.09-1.08,2.12-.42,2.12-.68-2.38.21-2.23-.2.16-1-.93-1.4a2.63,2.63,0,0,1-1.71-1.76c-.05-.47-.67-1.81-1.19-1.71s.57-.16.67-1,.73-.73.73-1,.57-1.45-.42-1a2.29,2.29,0,0,1-2.48-.62,4.67,4.67,0,0,1-.52-1.92l.16-1.71s-2.8.37-3.21-.2,0-1.4.1-1.61-.93-1.76-1-2.85,1.24-2.84,1.24-2.84a17,17,0,0,1-1.45-1.3c-.73-.72-1.24-1-.78-1s2.8-.47,2.8-.47a1.22,1.22,0,0,0,.62-2c-1-1.5-.16-2.58-.52-2.69a26.8,26.8,0,0,1-4.35-2.22C216.84,403.67,215.86,403.16,216.17,403Z"
       transform="translate(-150.08 -238.4)"
       id="path72" />
    <path
       class="cls-9"
       d="M209,420.63s2.75,0,3,.28a2,2,0,0,0,1.7.71c1.16.06,2.31.66,2.26,1.1s1.15-.33,2.74-.11-1.37-1.15-1.21-1.76,1.21-.38,1.32-.82a6.64,6.64,0,0,0,0-1.81c-.06-.28-1.43-1.27-.88-1.76s.88-.5,1.26-.83,1.87-1.26,1.26-1.75-1.92-1.38-1.92-1.38-.44-2.14.5-3a4.14,4.14,0,0,0,1.31-2.58c-.05-.33-.66-1.27-.93-1.27s-2.09-.49-1.92-.76-1.54-.22-1.48-.55-.5-.72-.5-.72l-2.25,1.82s-1,.65-1,1.26.33,1.87,0,2.3a16.91,16.91,0,0,0-1.32,1.6c-.22.44-.94.88-1.16,1.1s-.49,2.14-1.2,2.19c-.06.66.49,1.54.16,1.81s-.27.94-.38,1.6-.22,2.14.05,2.41A6.7,6.7,0,0,1,209,420.63Z"
       transform="translate(-150.08 -238.4)"
       id="path74" />
  </g>
  <path
     class="cls-11"
     d="M323.49,404a10.43,10.43,0,0,1,0,2.55c-.2.68-5-1-5-1s0-2.07,1.18-2.21A8.7,8.7,0,0,1,323.49,404Z"
     transform="translate(-150.08 -238.4)"
     id="path78" />
  <path
     class="cls-12"
     d="M319.05,405.64s-.72-3,4.44-1.62c-.77-5.28-8.63-3.21-8,.46C316.16,408,312.75,407.8,319.05,405.64Z"
     transform="translate(-150.08 -238.4)"
     id="path80" />
  <path
     class="cls-13"
     d="M329.68,413.45"
     transform="translate(-150.08 -238.4)"
     id="path82" />
  <path
     class="cls-13"
     d="M362.22,353.63"
     transform="translate(-150.08 -238.4)"
     id="path84" />
  <path
     class="cls-14"
     d="M236.9,331.2c0,1.64-3,3-6.59,3s-6.59-1.33-6.59-3,2.95-3,6.59-3S236.9,329.56,236.9,331.2Z"
     transform="translate(-150.08 -238.4)"
     id="path86" />
  <path
     class="cls-14"
     d="M250.08,335.15c0,.48-.59.86-1.32.86s-1.32-.38-1.32-.86.59-.85,1.32-.85S250.08,334.68,250.08,335.15Z"
     transform="translate(-150.08 -238.4)"
     id="path88" />
  <path
     class="cls-14"
     d="M261,337.46c0,.29-.53.53-1.19.53s-1.19-.24-1.19-.53.53-.53,1.19-.53S261,337.17,261,337.46Z"
     transform="translate(-150.08 -238.4)"
     id="path90" />
  <path
     class="cls-15"
     d="M337.27,372A7.33,7.33,0,0,1,327,367.88,9.29,9.29,0,0,1,314.73,363a14.25,14.25,0,0,1-14.13,0,6.39,6.39,0,0,1-11.6,1,6.71,6.71,0,0,0-10-2.53,9.4,9.4,0,0,0-11.75,0,20,20,0,0,1-1.68,1.15,5.29,5.29,0,0,1-3.23-4.09,8.51,8.51,0,0,1-12.71-6.12A9.49,9.49,0,0,1,236,355.45a3,3,0,0,1-4-3.68,12.14,12.14,0,0,1-19.67-3.22,6.17,6.17,0,0,1,2.37.52,2.75,2.75,0,0,1,.69-1.25,2.92,2.92,0,0,1,1.66-.89,2.87,2.87,0,0,1,2.89,1.36,9,9,0,0,1,1.48-2.7,9.16,9.16,0,0,1,3.67-2.82,9.34,9.34,0,0,1,7.54.11,16.37,16.37,0,0,1,1.37-2.06h0a15.33,15.33,0,0,1,25.13,1.51A5.89,5.89,0,0,1,269,345a5.33,5.33,0,0,1,6.06-1.83,6.62,6.62,0,0,1,.81.36,5.31,5.31,0,0,1,2.73,4.88,3.54,3.54,0,0,1,5.09,2,18.14,18.14,0,0,1,29.84,1.5,4,4,0,0,1,5.39,5.48,11.11,11.11,0,0,1,16,10.64S339.33,367.32,337.27,372Z"
     transform="translate(-150.08 -238.4)"
     id="path92" />
  <path
     class="cls-16"
     d="M265.59,362.61a19.49,19.49,0,0,1-22.12-1.15,10.74,10.74,0,0,1-2.93,4.87,3.8,3.8,0,0,1-2.95-1,3.87,3.87,0,0,1-1.09-4.05,6.57,6.57,0,0,1-11.37-2.92,4.5,4.5,0,0,1-7,3.48,4.55,4.55,0,0,1-2-4.08,5.55,5.55,0,0,1-7.27-8.21h0a6.06,6.06,0,0,1,3.41-1A12.14,12.14,0,0,0,232,351.77a3,3,0,0,0,4,3.68,9.49,9.49,0,0,0,13.64-3.05,8.51,8.51,0,0,0,12.71,6.12A5.29,5.29,0,0,0,265.59,362.61Z"
     transform="translate(-150.08 -238.4)"
     id="path94" />
  <path
     class="cls-17"
     d="M240.54,366.33a10.63,10.63,0,0,1-11.68,1.95c-2.3,8.42-6.43,2.23-12.69,4.05a5.06,5.06,0,0,1-3.5-4.21,3.69,3.69,0,0,1-1.34,1.48,2.88,2.88,0,0,1-1.9-1.82,2.93,2.93,0,0,1,.65-3,5.69,5.69,0,0,1-6.71-8.94h0a5.53,5.53,0,0,1,3,0,6,6,0,0,1,2-5.92,4.56,4.56,0,0,1,.42-.31,5.55,5.55,0,0,0,7.27,8.21,4.55,4.55,0,0,0,2,4.08,4.5,4.5,0,0,0,7-3.48,6.57,6.57,0,0,0,11.37,2.92,3.87,3.87,0,0,0,1.09,4.05A3.8,3.8,0,0,0,240.54,366.33Z"
     transform="translate(-150.08 -238.4)"
     id="path96" />
  <path
     class="cls-18"
     d="M211.33,369.6a3.79,3.79,0,0,1-2.7.56,3.85,3.85,0,0,1-3.18-3.22,5.66,5.66,0,0,1-2.08-11.08,5.69,5.69,0,0,0,6.71,8.94,2.93,2.93,0,0,0-.65,3A2.88,2.88,0,0,0,211.33,369.6Z"
     transform="translate(-150.08 -238.4)"
     id="path98" />
  <path
     class="cls-18"
     d="M349.28,380.55c-7.59,5.56-15.63-3.3-24-5a9.71,9.71,0,0,1-12.06-5.17,2,2,0,0,1-3-.71A16.17,16.17,0,0,1,288,372.25a16.79,16.79,0,0,0-18.09-4.6,5.39,5.39,0,0,1-8.8,3.89A11.18,11.18,0,0,1,250,368.68a14.16,14.16,0,0,1-21.11,10,6.17,6.17,0,0,1-7.22,2.53,12.12,12.12,0,0,1-17.84-1.38c1.4-2.48,5-5.15,12.37-7.5,6.26-1.82,10.39,4.37,12.69-4.05a10.63,10.63,0,0,0,11.68-1.95,10.74,10.74,0,0,0,2.93-4.87,19.49,19.49,0,0,0,22.12,1.15,20,20,0,0,0,1.68-1.15,9.4,9.4,0,0,1,11.75,0A6.71,6.71,0,0,1,289,364a6.39,6.39,0,0,0,11.6-1,14.25,14.25,0,0,0,14.13,0A9.29,9.29,0,0,0,327,367.88,7.33,7.33,0,0,0,337.27,372c7,.32,6.19,4.69,11.67,8.33Z"
     transform="translate(-150.08 -238.4)"
     id="path100" />
  <path
     class="cls-19"
     d="M360.13,381.86c-4.9,4.49-10.1,1.32-11.35,4.6-1.5,4-13.25-.32-21.18-2.46s-4.46,5.87-9.19,3.45a7.05,7.05,0,0,1-6.22-1.08,36.42,36.42,0,0,1-6.83,3.5,34.43,34.43,0,0,1-27-3.31A12.28,12.28,0,0,1,267.87,384a2.8,2.8,0,0,1-2,1.31,2.74,2.74,0,0,1-2.28-.72,17.27,17.27,0,0,1-15.94,6.72c-.4-.15-.8-.33-1.18-.5s-.6-.27-.89-.43a18.16,18.16,0,0,1-2.5-1.55,3,3,0,0,1-3.49-.54,11.64,11.64,0,0,1-11.75,1.26c-2.11,3.3-5.45,2.34-9.36,2.18s-7.85.49-9.69-3c-2.58-.26-7.62-4.29-5-8.93a12.12,12.12,0,0,0,17.84,1.38,6.17,6.17,0,0,0,7.22-2.53,14.16,14.16,0,0,0,21.11-10,11.18,11.18,0,0,0,11.12,2.86,5.39,5.39,0,0,0,8.8-3.89,16.79,16.79,0,0,1,18.09,4.6,16.17,16.17,0,0,0,22.23-2.54,2,2,0,0,0,3,.71,9.71,9.71,0,0,0,12.06,5.17c8.37,1.66,16.41,10.52,24,5,3.73,2.35,7.12,2.13,10.16.36A.59.59,0,0,1,360.13,381.86Z"
     transform="translate(-150.08 -238.4)"
     id="path102" />
  <path
     class="cls-18"
     d="M305.36,389.87q-1.62.63-3.3,1.11c-.56.17-1.13.32-1.69.44-1.13.27-2.28.48-3.42.65-.57.07-1.16.15-1.73.2s-1.16.09-1.74.12c-1.08.05-2.18.05-3.26,0h-.35a.86.86,0,0,1-.23,0c-.38,0-.75,0-1.12-.07h-.1l-.47,0h-.05c-.48-.05-.95-.1-1.43-.18l-1.52-.24h0l-.91-.19-.59-.13-.73-.17c-.4-.09-.79-.2-1.18-.32-.55-.14-1.11-.31-1.64-.5l-.65-.22c-.46-.17-.92-.33-1.37-.51a9.26,9.26,0,0,1-9.81-1.88c-.28.25-.58.48-.88.71s-.87.63-1.32.92c-.24.16-.51.31-.77.46s-.37.21-.56.31-.58.31-.88.45L263,391a2.52,2.52,0,0,1-.34.15l-.79.31a17.39,17.39,0,0,1-2.28.67c-.32.08-.63.14-.94.2-.12,0-.25,0-.37.06a2.39,2.39,0,0,1-.36,0c-.25,0-.5.08-.75.1a8.91,8.91,0,0,1-.89.08,20,20,0,0,1-8.64-1.33,17.27,17.27,0,0,0,15.94-6.72,2.74,2.74,0,0,0,2.28.72,2.8,2.8,0,0,0,2-1.31,12.28,12.28,0,0,0,10.48,2.56A34.43,34.43,0,0,0,305.36,389.87Z"
     transform="translate(-150.08 -238.4)"
     id="path104" />
  <path
     class="cls-19"
     d="M233.42,376.12c-3.88,2.81-5.57,2.59-6.72,1-3,2-6.68,2.71-9.39-1.26,3.34,5.77,7.54,2.76,8.61,2.25C229.92,382.71,233.42,376.12,233.42,376.12Z"
     transform="translate(-150.08 -238.4)"
     id="path106" />
  <path
     class="cls-19"
     d="M244.72,369.17c3.63,1.43,6.9-1.78,7.26-3.09C251.86,371.73,247.1,370.84,244.72,369.17Z"
     transform="translate(-150.08 -238.4)"
     id="path108" />
  <path
     class="cls-19"
     d="M265.25,367.69a4.19,4.19,0,0,0,5-4.59C271.5,370.66,267.33,369.35,265.25,367.69Z"
     transform="translate(-150.08 -238.4)"
     id="path110" />
  <path
     class="cls-17"
     d="M222.2,356.69c2.85,1.75,3.57,1.51,5.47.4a4,4,0,0,0,5.32,1.35,4.33,4.33,0,0,1-6-.28S225.89,361.3,222.2,356.69Z"
     transform="translate(-150.08 -238.4)"
     id="path112" />
  <path
     class="cls-18"
     d="M310.73,358.4c2.85,4.88,5.77,4.82,8.33,4.05C314.65,365.31,312.75,363.46,310.73,358.4Z"
     transform="translate(-150.08 -238.4)"
     id="path114" />
  <path
     class="cls-18"
     d="M292.63,356.84c6.41,7,10.1,5.63,12.93,3.23C301.56,366.77,298.08,364.48,292.63,356.84Z"
     transform="translate(-150.08 -238.4)"
     id="path116" />
  <path
     class="cls-18"
     d="M324.47,365.42c3,2.45,4,3.1,6.79,2.45C325.67,370.07,324.47,365.31,324.47,365.42Z"
     transform="translate(-150.08 -238.4)"
     id="path118" />
  <path
     class="cls-16"
     d="M231.46,346.08c3.69,3.93,6.61,3.27,8.34,1.91,1.13,4.46,6.36,3,7.5,2-5.48,5.06-8.4.06-8.4.06S233.43,351.68,231.46,346.08Z"
     transform="translate(-150.08 -238.4)"
     id="path120" />
  <path
     class="cls-16"
     d="M227.16,349.35c3,2.44,6.07,2.33,8.39.84C232,353.64,230.37,353.94,227.16,349.35Z"
     transform="translate(-150.08 -238.4)"
     id="path122" />
  <path
     class="cls-16"
     d="M247.32,350.86c3,2.44,6.07,2.32,8.39.84C252.2,355.15,250.53,355.45,247.32,350.86Z"
     transform="translate(-150.08 -238.4)"
     id="path124" />
  <path
     class="cls-16"
     d="M260.19,356c2.86,2.38,2.62,3.16,6.13.6C261.5,361.79,261.14,358.46,260.19,356Z"
     transform="translate(-150.08 -238.4)"
     id="path126" />
  <path
     class="cls-3"
     d="M228.79,382.82c9,4.65,18.51,1.94,20.24-2.52,5.05,1.63,10.74-.52,12-4,8.08,3.54,14.83,1.55,17.58-1.44s7.7-2.07,10.61,2.69c4.55-.53,9,.49,9.59,4.44s-6.66,5.69-9.15,2.37c-2.19,1.22-6.31,0-5.15-2.35-3.69,1.34-5.9-1.43-5.83-3.1-4.7,4.34-14.44,2.6-16.44.93-3,2.5-9.22,4.15-12.09,2.45A17.83,17.83,0,0,1,228.79,382.82Z"
     transform="translate(-150.08 -238.4)"
     id="path128" />
  <path
     class="cls-3"
     d="M303.94,377.88c3.89.88,7-.47,7.94-3.33,2.77,4.21,10.55,5.87,14.36,3.49-6.75,4.92-12.7,2.07-13.81,1.11C308.3,381.69,304.18,378.2,303.94,377.88Z"
     transform="translate(-150.08 -238.4)"
     id="path130" />
  <path
     class="cls-20"
     d="M279.91,332.24a8.58,8.58,0,0,1-15.43-5.42,9.18,9.18,0,0,1-15-7.32,1,1,0,0,1-1-.32,1,1,0,0,1-.14-1.07,1,1,0,0,1,.92-.57,6.57,6.57,0,0,1,6.38-11.43,1.85,1.85,0,0,1,0-1.46,1.83,1.83,0,0,1,1-1,5.69,5.69,0,0,1,11-2.32,2.63,2.63,0,0,1,3.87,3,7.76,7.76,0,0,1,3.33,15,2.54,2.54,0,0,1,2.34,1.5,2.51,2.51,0,0,1-.44,2.73,14.26,14.26,0,0,1,3.78-.66A8.58,8.58,0,0,1,279.91,332.24Z"
     transform="translate(-150.08 -238.4)"
     id="path132" />
  <path
     class="cls-21"
     d="M233,342.45a17.61,17.61,0,0,0-1.36,2.07,9.26,9.26,0,0,0-11.22,2.71,2.4,2.4,0,0,1-.84-.26,2.6,2.6,0,0,1-1.36-2,4.65,4.65,0,0,1-4.39-4.34,6.88,6.88,0,0,1,5.29-2.88,3,3,0,0,1,1-5.47,7.7,7.7,0,0,1,5.34-13.41,9,9,0,0,0,4.73,16.1,2,2,0,0,0,0,4.05A3.77,3.77,0,0,0,233,342.45Z"
     transform="translate(-150.08 -238.4)"
     id="path134" />
  <path
     class="cls-18"
     d="M220.37,347.23a9.28,9.28,0,0,0-1.48,2.69,2.88,2.88,0,0,0-2.88-1.35,2.93,2.93,0,0,0-1.67.88,6.93,6.93,0,0,1-1.7-6.29,6.62,6.62,0,0,1,1.14-2.5,4.65,4.65,0,0,0,4.39,4.34,2.6,2.6,0,0,0,1.36,2A2.4,2.4,0,0,0,220.37,347.23Z"
     transform="translate(-150.08 -238.4)"
     id="path136" />
  <path
     class="cls-22"
     d="M286.39,335.09a5.37,5.37,0,0,1-4.41.9,10.49,10.49,0,0,1-16.66,1.72,9.32,9.32,0,0,1-11.43-5.35A11.46,11.46,0,0,1,240,330.75a1.63,1.63,0,0,1-2.27-2A10.15,10.15,0,0,1,223,321.81a9,9,0,0,1,2.42-2.91c-2-3-.83-9.33,1.73-5.47.6-5.65,4.29-11.49,7.8-6.49a3.75,3.75,0,0,1,7-2.07,6.32,6.32,0,0,1,12.09-1,1.89,1.89,0,0,1,2.56-.24,1.83,1.83,0,0,0-1,1,1.85,1.85,0,0,0,0,1.46,6.57,6.57,0,0,0-6.38,11.43,1,1,0,0,0-.92.57,1,1,0,0,0,.14,1.07,1,1,0,0,0,1,.32,9.18,9.18,0,0,0,15,7.32,8.58,8.58,0,1,0,16-4C287.26,322.63,290,328.55,286.39,335.09Z"
     transform="translate(-150.08 -238.4)"
     id="path138" />
  <path
     class="cls-17"
     d="M286.39,335.09c-1.91,3.47-5.63,7.13-11.51,10.11a5,5,0,0,0-.81-.36,5.32,5.32,0,0,0-6.05,1.83,5.89,5.89,0,0,0-9.93-2.7A15.32,15.32,0,0,0,233,342.45h0a3.77,3.77,0,0,1-2.79-3.4,2,2,0,0,1,0-4.05A9,9,0,0,1,223,321.81a10.15,10.15,0,0,0,14.74,6.92,1.63,1.63,0,0,0,2.27,2,11.46,11.46,0,0,0,13.87,1.61,9.32,9.32,0,0,0,11.43,5.35A10.49,10.49,0,0,0,282,336,5.37,5.37,0,0,0,286.39,335.09Z"
     transform="translate(-150.08 -238.4)"
     id="path140" />
  <path
     class="cls-14"
     d="M258.65,307.46A4.66,4.66,0,1,1,267.5,306a1.65,1.65,0,0,1,2.3,1.11,5.92,5.92,0,1,1-3.41,11,4.7,4.7,0,1,1-7.58-5.23,2.93,2.93,0,1,1-.16-5.4Z"
     transform="translate(-150.08 -238.4)"
     id="path142" />
  <path
     class="cls-17"
     d="M250.08,327.54c2.06,5.55,7.86,5.16,10.71,4.13C255.16,336.43,251.75,334,250.08,327.54Z"
     transform="translate(-150.08 -238.4)"
     id="path144" />
  <path
     class="cls-17"
     d="M263.73,334.76c1.19,2.38,2.94,3.25,5,2.06C264.21,340.71,264,337.86,263.73,334.76Z"
     transform="translate(-150.08 -238.4)"
     id="path146" />
  <path
     class="cls-22"
     d="M261.19,322.7c2.14,4.44,6.9,5.16,10.87.95C267,331.74,261.9,328.57,261.19,322.7Z"
     transform="translate(-150.08 -238.4)"
     id="path148" />
  <path
     class="cls-3"
     d="M220.48,338.33c2.3,1.75,4.44.32,4.76-.95.24,2.94,1.29,4.56,5.1,5.08-5.22,0-6.09-2.54-6.09-2.54S221.39,340.43,220.48,338.33Z"
     transform="translate(-150.08 -238.4)"
     id="path150" />
  <path
     class="cls-23"
     d="M310.71,407.94a49.65,49.65,0,0,1-1.17-5.19,4.57,4.57,0,0,0,0-1.65,2,2,0,0,1,.58-1.61c.35-.45,1-1.21,1.27-1.58a19.08,19.08,0,0,1,2.58-2.49c.2,0,1.25-.61,1.45,0a13,13,0,0,1,.85,2.13c0,.36-.49.12-.49.4s0,.77-.48.89-.68.48-.6.77,0,.64-.2.68-.17.57-.41.65-.28.45,0,.61a2.75,2.75,0,0,1,1.17,1.64,6.37,6.37,0,0,1,.44,2.06c0,.68-.12,1.28.12,1.32s.41.69.41.69.4,2.34-1,2.42-4.51.4-4.75,0S310.14,408.19,310.71,407.94Z"
     transform="translate(-150.08 -238.4)"
     id="path152" />
  <text
     x="-150.08"
     y="-238.4"
     id="text154" />
  <path
     class="cls-14"
     d="M424.46,446c-15.28-66.41-101-161.75-143.43-166.18,0,0,22.34-16.29,33.42-17.75,64.76-8.5,159.24,127.32,123.82,174C430.53,446.27,424.63,446.76,424.46,446Z"
     transform="translate(-150.08 -238.4)"
     id="path156" />
  <path
     class="cls-24"
     d="M425,446.84"
     transform="translate(-150.08 -238.4)"
     id="path158" />
  <g
     class="cls-25"
     clip-path="url(#clip-path-2)"
     id="g224">
    <polygon
       class="cls-3"
       points="121.03 58.38 191.01 6.87 195.89 0 123.57 53.24 121.03 58.38"
       id="polygon160" />
    <polygon
       class="cls-3"
       points="195.94 11.65 125.34 63.34 128.03 58.37 200.99 4.95 195.94 11.65"
       id="polygon162" />
    <polyline
       class="cls-3"
       points="129.65 68.31 200.88 16.44 206.09 9.89 132.48 63.49"
       id="polyline164" />
    <polyline
       class="cls-3"
       points="133.96 73.27 205.81 21.23 211.19 14.84 136.94 68.62"
       id="polyline166" />
    <polyline
       class="cls-3"
       points="138.27 78.23 210.75 26.01 216.29 19.79 141.39 73.75"
       id="polyline168" />
    <polyline
       class="cls-3"
       points="142.58 83.19 215.69 30.8 221.4 24.73 145.84 78.88"
       id="polyline170" />
    <polyline
       class="cls-3"
       points="146.89 88.16 220.62 35.59 226.5 29.68 150.3 84.01"
       id="polyline172" />
    <polyline
       class="cls-3"
       points="151.2 93.12 225.56 40.37 231.6 34.63 154.75 89.14"
       id="polyline174" />
    <polyline
       class="cls-3"
       points="155.51 98.08 230.49 45.16 236.7 39.57 159.21 94.27"
       id="polyline176" />
    <polyline
       class="cls-3"
       points="159.82 103.05 235.43 49.95 241.8 44.52 163.66 99.4"
       id="polyline178" />
    <polyline
       class="cls-3"
       points="164.13 108.01 240.37 54.73 246.9 49.47 168.12 104.53"
       id="polyline180" />
    <polyline
       class="cls-3"
       points="168.44 112.97 245.3 59.52 252 54.41 172.57 109.65"
       id="polyline182" />
    <polyline
       class="cls-3"
       points="172.75 117.93 250.24 64.31 257.1 59.36 177.03 114.78"
       id="polyline184" />
    <polyline
       class="cls-3"
       points="177.06 122.9 255.17 69.09 262.2 64.31 181.48 119.91"
       id="polyline186" />
    <polyline
       class="cls-3"
       points="181.37 127.86 260.11 73.88 267.31 69.25 185.94 125.04"
       id="polyline188" />
    <polyline
       class="cls-3"
       points="185.68 132.82 265.05 78.67 272.41 74.2 190.39 130.17"
       id="polyline190" />
    <polyline
       class="cls-3"
       points="189.99 137.78 269.98 83.45 277.51 79.15 194.84 135.3"
       id="polyline192" />
    <polyline
       class="cls-3"
       points="194.3 142.75 274.92 88.24 282.61 84.09 199.3 140.43"
       id="polyline194" />
    <polyline
       class="cls-3"
       points="198.61 147.71 279.85 93.02 287.71 89.04 203.75 145.56"
       id="polyline196" />
    <polyline
       class="cls-3"
       points="202.92 152.67 284.79 97.81 292.81 93.99 208.21 150.69"
       id="polyline198" />
    <polyline
       class="cls-3"
       points="207.23 157.64 289.73 102.6 297.91 98.93 212.66 155.81"
       id="polyline200" />
    <polyline
       class="cls-3"
       points="211.54 162.6 294.66 107.38 303.01 103.88 217.12 160.94"
       id="polyline202" />
    <polyline
       class="cls-3"
       points="215.85 167.56 299.6 112.17 308.12 108.83 221.57 166.07"
       id="polyline204" />
    <polyline
       class="cls-3"
       points="220.16 172.52 304.53 116.96 313.22 113.77 226.02 171.2"
       id="polyline206" />
    <polyline
       class="cls-3"
       points="224.47 177.49 309.47 121.74 318.32 118.72 230.48 176.33"
       id="polyline208" />
    <polyline
       class="cls-3"
       points="228.78 182.45 314.4 126.53 323.42 123.67 234.93 181.46"
       id="polyline210" />
    <polyline
       class="cls-3"
       points="233.09 187.41 319.34 131.32 328.52 128.61 239.39 186.59"
       id="polyline212" />
    <polyline
       class="cls-3"
       points="237.4 192.38 324.28 136.1 333.62 133.56 243.84 191.72"
       id="polyline214" />
    <polyline
       class="cls-3"
       points="241.71 197.34 329.21 140.89 338.72 138.51 248.3 196.84"
       id="polyline216" />
    <polyline
       class="cls-3"
       points="246.02 202.3 334.15 145.68 343.82 143.45 252.75 201.97"
       id="polyline218" />
    <polyline
       class="cls-3"
       points="250.33 207.26 339.08 150.46 348.93 148.4 257.2 207.1"
       id="polyline220" />
    <polyline
       class="cls-3"
       points="254.64 212.23 344.02 155.25 354.03 153.35 261.66 212.23"
       id="polyline222" />
  </g>
  <path
     class="cls-2"
     d="M424.46,446c-15.28-66.41-101-161.75-143.43-166.18,0,0,22.25-18,33.42-17.75,75.84,1.81,159.24,127.32,123.82,174C430.53,446.27,424.63,446.76,424.46,446Z"
     transform="translate(-150.08 -238.4)"
     id="path226" />
  <path
     class="cls-4"
     d="M301.79,266.18s16.41-14.37,47.14.15c18.57,8.77,70.58,39.79,93.26,108.71,16,48.74-5.88,63.64-5.88,63.64-1.48-.12,17.19-14.92,3.1-57.4-17.57-51.52-58.19-97.71-103.7-115.58C315.82,257.88,301.79,266.18,301.79,266.18Z"
     transform="translate(-150.08 -238.4)"
     id="path228" />
  <line
     class="cls-26"
     x1="171.09"
     y1="153.58"
     x2="167.12"
     y2="167.43"
     id="line230" />
  <path
     class="cls-8"
     d="M310.19,406.46s-4.44,3.6-4.27,6.21a17.86,17.86,0,0,0,1.55,6.26,15.27,15.27,0,0,0,5.35,4.52c2.08.87,20.64-1,24.47-2.33s7.63-6.74,2-9.86-1,.56-17.67-5.72c-1.42-.4-1.81-.63-4.4.29-2.34.82-3.88,3.66-6.17,2.31C310.47,407.8,310.49,406.63,310.19,406.46Z"
     transform="translate(-150.08 -238.4)"
     id="path232" />
  <path
     class="cls-13"
     d="M319.6,388.71"
     transform="translate(-150.08 -238.4)"
     id="path234" />
  <line
     class="cls-13"
     x1="160.92"
     y1="27.41"
     x2="152.53"
     y2="66.81"
     id="line236" />
  <line
     class="cls-13"
     x1="254.32"
     y1="190.84"
     x2="182.16"
     y2="170.69"
     id="line238" />
  <line
     class="cls-13"
     x1="289.4"
     y1="191.76"
     x2="254.32"
     y2="190.84"
     id="line240" />
  <line
     class="cls-13"
     x1="274.37"
     y1="207.59"
     x2="254.32"
     y2="190.84"
     id="line242" />
  <line
     class="cls-13"
     x1="247.45"
     y1="159.43"
     x2="182.16"
     y2="170.69"
     id="line244" />
  <line
     class="cls-13"
     x1="257.92"
     y1="165.16"
     x2="182.16"
     y2="170.69"
     id="line246" />
  <line
     class="cls-13"
     x1="232.85"
     y1="125.12"
     x2="182.16"
     y2="170.69"
     id="line248" />
  <line
     class="cls-13"
     x1="232.09"
     y1="129.4"
     x2="182.16"
     y2="170.69"
     id="line250" />
  <line
     class="cls-13"
     x1="130.95"
     y1="41.41"
     x2="152.53"
     y2="66.81"
     id="line252" />
  <line
     class="cls-13"
     x1="207.17"
     y1="43.8"
     x2="186.69"
     y2="86.07"
     id="line254" />
  <line
     class="cls-13"
     x1="193.11"
     y1="54.5"
     x2="186.69"
     y2="86.07"
     id="line256" />
  <line
     class="cls-13"
     x1="213.06"
     y1="104.41"
     x2="227.27"
     y2="88.13"
     id="line258" />
  <line
     class="cls-13"
     x1="245.61"
     y1="75.52"
     x2="213.06"
     y2="104.41"
     id="line260" />
  <line
     class="cls-13"
     x1="252.26"
     y1="112.2"
     x2="232.09"
     y2="129.4"
     id="line262" />
  <line
     class="cls-3"
     x1="266.25"
     y1="103.03"
     x2="232.09"
     y2="129.4"
     id="line264" />
  <line
     class="cls-3"
     x1="286.65"
     y1="146.59"
     x2="247.45"
     y2="159.43"
     id="line266" />
  <line
     class="cls-13"
     x1="273.12"
     y1="155.07"
     x2="247.45"
     y2="159.43"
     id="line268" />
  <path
     class="cls-27"
     d="M205.57,318.32s12.16-8.65,22.46-14.54,46.69-18.73,51.41-24.2a49.47,49.47,0,0,1,15.63-12c-6.63-15.78-125.22,16.81-125.22,16.81S137.92,386.35,157.6,399.13c1.33-4.07,3.43-7.54,12.39-14.4C176.33,379.88,184.55,345.17,205.57,318.32Z"
     transform="translate(-150.08 -238.4)"
     id="path270" />
  <path
     class="cls-3"
     d="M170.47,379.61l9-85.42a69.78,69.78,0,0,1,14.29-3.62c21.52-3.29,62.21-8.8,77.88-10.12-46.39,9.66-86.92,18.95-86.92,18.95Z"
     transform="translate(-150.08 -238.4)"
     id="path272" />
  <path
     class="cls-28"
     d="M157.24,399.67C137.56,386.89,169.49,285,169.49,285s118.59-32.58,125.22-16.81"
     transform="translate(-150.08 -238.4)"
     id="path274" />
  <line
     class="cls-29"
     x1="3.72"
     y1="147.02"
     x2="10.5"
     y2="155.21"
     id="line276" />
  <line
     class="cls-29"
     x1="6.99"
     y1="133.55"
     x2="18.93"
     y2="147.28"
     id="line278" />
  <line
     class="cls-29"
     x1="10.56"
     y1="120.02"
     x2="24.76"
     y2="136.44"
     id="line280" />
  <line
     class="cls-29"
     x1="15.16"
     y1="103.79"
     x2="31.91"
     y2="122.04"
     id="line282" />
  <line
     class="cls-29"
     x1="19.69"
     y1="86.48"
     x2="39.12"
     y2="107.17"
     id="line284" />
  <line
     class="cls-29"
     x1="24.92"
     y1="69.49"
     x2="46.27"
     y2="92.78"
     id="line286" />
  <line
     class="cls-29"
     x1="46.37"
     y1="48.36"
     x2="69.19"
     y2="69.63"
     id="line288" />
  <line
     class="cls-29"
     x1="64.3"
     y1="43.39"
     x2="84.78"
     y2="61.53"
     id="line290" />
  <line
     class="cls-29"
     x1="81.93"
     y1="38.49"
     x2="102.24"
     y2="54.16"
     id="line292" />
  <line
     class="cls-29"
     x1="99.05"
     y1="34.16"
     x2="117.71"
     y2="47.03"
     id="line294" />
  <line
     class="cls-29"
     x1="113.16"
     y1="30.42"
     x2="128.54"
     y2="40.19"
     id="line296" />
  <line
     class="cls-29"
     x1="127"
     y1="26.9"
     x2="135.98"
     y2="32.77"
     id="line298" />
  <path
     class="cls-4"
     d="M154.41,396.4s-.85-9.84,3.65-25.74,21.42-76.47,21.42-76.47,41.86-15.18,80.67-24.44c15.22-3.64,25.63-6.33,27.31-5.73-9.41-1.73-16.76-.14-24.81,1-36.94,5.3-93.16,19.93-93.16,19.93s-15,53.28-17.37,76.25S150.54,390.29,154.41,396.4Z"
     transform="translate(-150.08 -238.4)"
     id="path300" />
  <line
     class="cls-30"
     x1="3.84"
     y1="111.35"
     x2="35.49"
     y2="60.52"
     id="line302" />
  <line
     class="cls-30"
     x1="82.15"
     y1="31.72"
     x2="35.49"
     y2="60.52"
     id="line304" />
  <line
     class="cls-31"
     x1="19.41"
     y1="46.56"
     x2="74.65"
     y2="100.28"
     id="line306" />
  <polygon
     class="cls-8"
     points="26.56 78.8 45.41 70.4 46.56 71.36 27.63 79.77 26.56 78.8"
     id="polygon308" />
  <path
     class="cls-8"
     d="M197.64,299.44l-1,10.1c0,.07-.1.09-.14,0l-1-.76,1.11-9.26Z"
     transform="translate(-150.08 -238.4)"
     id="path310" />
  <path
     class="cls-8"
     d="M186.28,307.2a4.32,4.32,0,0,1-2.09-5.05c.24-1.28,3.13-1.26,3.89.62a6.42,6.42,0,0,1,.52,2.7c.15.36,1.12.42,1.86,0-.67-1-1.71-1.78.34-2.38.87-.08,1.4,1,1.4,1a24.23,24.23,0,0,0,2.4,1.66c.52.22,2.75,1.37,2.86,2.36.06.76-1,1.18-1.18,1a7.06,7.06,0,0,0-2.68-.61c-.54.1,6.59,6,8.15,8.62s9.79,13.43,8.84,14.76-7.39-2.95-12.83-8.32-8.11-10.09-9.6-10.76-.86.93-.86.93-.33,2.46-.77,2.69-1.32.24-4.8-1.16c-.75-.56-1.92-1.67-1-2.44,1-.1,1.46.05,1.66.71a1.87,1.87,0,0,0,1.64,1c.39-.07,1,.13,1.22-.37s-.75-3.51-.28-4.37,1.69-1.69,1.77-2.09S186.28,307.2,186.28,307.2Z"
     transform="translate(-150.08 -238.4)"
     id="path312" />
  <path
     class="cls-8"
     d="M176.65,317.2c-.15-.31,2.88-1.68,3.65-2.28s-.22-2,1.2-3.39.29-1.83,1.42-3,4.59-4.53,5.06-4.61a6,6,0,0,0,2.16-1.24c.84-.69,3.13.37,3.76-.52s2.42-3.29,3-3.48c1.44.83.72.8.72.8a32.57,32.57,0,0,0-2.78,3.52c-.27.67-2.41.43-3,.15a6.65,6.65,0,0,1-3.57,1.87c-.64.43-3.25,3.6-4.84,4.5-.62,1.35-.66,2-1.3,2.4s-.28,3.15-1,3.74-3.45,2.55-3.45,2.55A2.61,2.61,0,0,1,176.65,317.2Z"
     transform="translate(-150.08 -238.4)"
     id="path314" />
  <path
     class="cls-32"
     d="M295.07,267.61c-4.71-8.91-44.74-1.82-77.63,5.53-26.72,6-47.95,11.82-47.95,11.82s-10.6,32.43-15.35,61.58c-4.17,25.63-6.1,46.12,3.1,53.13"
     transform="translate(-150.08 -238.4)"
     id="path316" />
  <path
     class="cls-4"
     d="M194.4,413.9l1.43,6.24a16.61,16.61,0,0,1,.56,4.58,4.55,4.55,0,0,1-1.3,2.89,8.7,8.7,0,0,1-4.3,2,5.06,5.06,0,0,1-3.1,0,4.74,4.74,0,0,1-1.87-2.31,4.76,4.76,0,0,1-.95,3.31,6.47,6.47,0,0,1-3.31,1.57l-2.23.51a8.83,8.83,0,0,1-3.74.27,3.11,3.11,0,0,1-2-1.4,19.09,19.09,0,0,1-1.57-4.9l-1.66-7.23Zm-11.78,9.28-6.73,1.54a2.78,2.78,0,0,0,.8,1.59,2.92,2.92,0,0,0,1.91-.06l2.25-.51c1-.24,1.63-.49,1.79-.75A3,3,0,0,0,182.62,423.18Zm9.09-2.09-5.35,1.23c.08.26.13.47.16.62.14.61.38,1,.72,1.07a7.52,7.52,0,0,0,2.66-.34,4.4,4.4,0,0,0,1.53-.57,1,1,0,0,0,.45-.68A4.87,4.87,0,0,0,191.71,421.09Z"
     transform="translate(-150.08 -238.4)"
     id="path318"
     style="fill:#ffffff;fill-opacity:1;opacity:1" />
  <path
     class="cls-4"
     d="M200.89,436.28l-18.36,7.24,1.43,3.63-4.6,1.81-3.78-9.6,23-9.05Z"
     transform="translate(-150.08 -238.4)"
     id="path320"
     style="fill:#ffffff;fill-opacity:1;opacity:1" />
  <path
     class="cls-4"
     d="M210.08,453.71,195.81,462a27.7,27.7,0,0,1-3.5,1.82,5.39,5.39,0,0,1-2.56.23,5.57,5.57,0,0,1-2.76-1.14,8.91,8.91,0,0,1-2.27-2.69,9.82,9.82,0,0,1-1.33-3.74,5.85,5.85,0,0,1,.38-3.14,5.27,5.27,0,0,1,1.65-2.1q1.05-.8,4.66-2.89L202.71,441l3.22,5.55-16,9.28a7.13,7.13,0,0,0-1.7,1.19.67.67,0,0,0,0,.84.75.75,0,0,0,.83.43,9,9,0,0,0,2.11-1l15.73-9.13Z"
     transform="translate(-150.08 -238.4)"
     id="path322"
     style="fill:#ffffff;fill-opacity:1;opacity:1" />
  <path
     class="cls-4"
     d="M211.43,455.38l6.75,8.3-3.84,3.11-2.7-3.32L208,466.42l2.53,3.11-3.64,3-2.53-3.11-4.21,3.42,3,3.66-3.83,3.11-7-8.63Z"
     transform="translate(-150.08 -238.4)"
     id="path324"
     style="fill:#ffffff;fill-opacity:1;opacity:1" />
  <path
     class="cls-4"
     d="M239.28,481.28l-14.75,19.79-4.5-3.36L230,484.35l-11.75,12L215,494l7.85-14.45-9.74,13-4.5-3.35,14.75-19.79,6.66,5q-1,2-2.52,4.66l-3,5.58,8.07-8.36Z"
     transform="translate(-150.08 -238.4)"
     id="path326"
     style="fill:#ffffff;fill-opacity:1;opacity:1" />
  <path
     class="cls-4"
     d="M248,501.33a52.31,52.31,0,0,1-2.41,4.68,5.88,5.88,0,0,1-5.29,2.8,10.13,10.13,0,0,1-6.54-3.06,5.89,5.89,0,0,1-1.29-5.88,50.8,50.8,0,0,1,2.12-4.9l1.8-3.81c1.07-2.24,1.87-3.81,2.42-4.69a5.9,5.9,0,0,1,5.29-2.79,9.05,9.05,0,0,1,3.6.94,9.25,9.25,0,0,1,2.94,2.11,5.95,5.95,0,0,1,1.29,5.88,49.72,49.72,0,0,1-2.12,4.9Zm-2.32-10.08a7.68,7.68,0,0,0,.77-2.07.77.77,0,0,0-.51-.77.88.88,0,0,0-.86,0,5.5,5.5,0,0,0-1.22,2L239,500.81a11.22,11.22,0,0,0-1,2.47.75.75,0,0,0,.52.8.8.8,0,0,0,1-.16,12.49,12.49,0,0,0,1.34-2.42Z"
     transform="translate(-150.08 -238.4)"
     id="path328"
     style="fill:#ffffff;fill-opacity:1;opacity:1" />
  <path
     class="cls-4"
     d="M270.05,492.75l-4.35,15.91a28.16,28.16,0,0,1-1.21,3.75,5.43,5.43,0,0,1-1.66,2,5.64,5.64,0,0,1-2.77,1.12,8.87,8.87,0,0,1-3.5-.32,9.67,9.67,0,0,1-3.57-1.73,5.83,5.83,0,0,1-1.94-2.51,5.21,5.21,0,0,1-.31-2.65c.13-.86.57-2.64,1.3-5.32l3.85-14.09,6.19,1.69-4.88,17.85a7.14,7.14,0,0,0-.37,2,.68.68,0,0,0,.56.62.74.74,0,0,0,.89-.27,9.39,9.39,0,0,0,.79-2.21l4.79-17.54Z"
     transform="translate(-150.08 -238.4)"
     id="path330"
     style="fill:#ffffff;fill-opacity:1;opacity:1" />
  <path
     class="cls-4"
     d="M286.22,494.37,284,519l-5.6-.51L276.08,507l-1,11.17-5.34-.48L272,493.08l5.35.48,2.57,11.4,1-11.07Z"
     transform="translate(-150.08 -238.4)"
     id="path332"
     style="fill:#ffffff;fill-opacity:1;opacity:1" />
  <path
     class="cls-4"
     d="M301.27,493.37l.35,4.92-3.8.27,1.41,19.69-6.4.46L291.42,499l-3.79.28-.35-4.93Z"
     transform="translate(-150.08 -238.4)"
     id="path334"
     style="fill:#ffffff;fill-opacity:1;opacity:1" />
  <path
     class="cls-4"
     d="M312.11,491,321,514.28l-6.4,1.4-1.29-4.26-2.24.5.57,4.41-6.48,1.42L303.05,493Zm.08,16.23q-1.38-4-3.18-9.92.56,7.14,1,10.39Z"
     transform="translate(-150.08 -238.4)"
     id="path336"
     style="fill:#ffffff;fill-opacity:1;opacity:1" />
  <path
     class="cls-4"
     d="M322.6,487.41,331,510.63l-6,2.17-8.37-23.21Z"
     transform="translate(-150.08 -238.4)"
     id="path338"
     style="fill:#ffffff;fill-opacity:1;opacity:1" />
  <path
     class="cls-4"
     d="M337.63,480.05l11.43,21.87-5,2.6-8.16-8.39,5.2,9.94-4.75,2.48-11.44-21.87,4.76-2.48,8.34,8.18-5.15-9.85Z"
     transform="translate(-150.08 -238.4)"
     id="path340"
     style="fill:#ffffff;fill-opacity:1;opacity:1" />
  <path
     class="cls-4"
     d="M354.71,476.59,350,480.2l-1.11-1.45a3.52,3.52,0,0,0-1.17-1.16.85.85,0,0,0-.82.19,1,1,0,0,0-.41.91,2.75,2.75,0,0,0,.64,1.31,4.06,4.06,0,0,0,1.39,1.28,4.85,4.85,0,0,0,2.36.1c3.3-.39,5.57-.37,6.82,0s2.61,1.58,4.08,3.5a9.26,9.26,0,0,1,1.87,3.47,4.84,4.84,0,0,1-.62,3.11,9.49,9.49,0,0,1-2.76,3.17,9.17,9.17,0,0,1-4.09,1.9,4.78,4.78,0,0,1-3.4-.53A12.64,12.64,0,0,1,349.7,493l-1-1.29,4.74-3.61,1.82,2.38a4,4,0,0,0,1.28,1.27,1,1,0,0,0,.95-.23,1,1,0,0,0,.45-1,2.88,2.88,0,0,0-.66-1.37c-.88-1.16-1.61-1.79-2.2-1.91a19.35,19.35,0,0,0-3.75,0,30.37,30.37,0,0,1-3.91.1,5.46,5.46,0,0,1-2.23-.79,9,9,0,0,1-2.37-2.26,9.08,9.08,0,0,1-1.94-3.74,4.85,4.85,0,0,1,.62-3,9.24,9.24,0,0,1,2.65-3,10.27,10.27,0,0,1,3.88-1.95,4.51,4.51,0,0,1,3.08.2,10.79,10.79,0,0,1,3,3Z"
     transform="translate(-150.08 -238.4)"
     id="path342"
     style="fill:#ffffff;fill-opacity:1;opacity:1" />
  <line
     class="cls-13"
     x1="171.09"
     y1="153.58"
     x2="152.53"
     y2="66.81"
     id="line344" />
  <line
     class="cls-13"
     x1="176.91"
     y1="66.12"
     x2="171.09"
     y2="153.58"
     id="line346" />
  <line
     class="cls-13"
     x1="186.69"
     y1="86.07"
     x2="171.09"
     y2="153.58"
     id="line348" />
  <line
     class="cls-13"
     x1="210.84"
     y1="99.44"
     x2="171.09"
     y2="153.58"
     id="line350" />
  <line
     class="cls-13"
     x1="213.06"
     y1="104.41"
     x2="171.09"
     y2="153.58"
     id="line352" />
  <line
     class="cls-2"
     x1="169.11"
     y1="154.21"
     x2="169.11"
     y2="154.21"
     id="line354" />
  <line
     class="cls-2"
     x1="171.09"
     y1="153.21"
     x2="171.25"
     y2="152.88"
     id="line356" />
  <line
     class="cls-2"
     x1="169.4"
     y1="154.3"
     x2="171.09"
     y2="153.21"
     id="line358" />
  <path
     class="cls-33"
     d="M314.52,395.32s.94.31,1.15.69a5.29,5.29,0,0,1,.5,1.42l0,.5s.23-1,.61-1a3.53,3.53,0,0,0,1.45-1.11,4.57,4.57,0,0,1,.83-1.37c.25-.16,1.44-1.22,1.46-1.67s.29-.89.07-1.14a1.13,1.13,0,0,0-1.07-.31c-.41.11-2.2.45-2.42.83s-1,.71-.94,1.44-1,1.41-1.29,1.39S314.52,395.32,314.52,395.32Z"
     transform="translate(-150.08 -238.4)"
     id="path360" />
  <path
     class="cls-23"
     d="M316.32,392.61a11.58,11.58,0,0,0,2,3.28,1.85,1.85,0,0,0,.3-.59,11,11,0,0,1-1.79-3.14C316.65,392.31,316.32,392.61,316.32,392.61Z"
     transform="translate(-150.08 -238.4)"
     id="path362" />
</svg>
