<?xml version="1.0" encoding="utf-8"?>
<!-- Generator: Adobe Illustrator 27.7.0, SVG Export Plug-In . SVG Version: 6.00 Build 0)  -->
<svg version="1.1" id="Layer_1" xmlns="http://www.w3.org/2000/svg" xmlns:xlink="http://www.w3.org/1999/xlink" x="0px" y="0px"
	 viewBox="0 0 283.46 283.46" style="enable-background:new 0 0 283.46 283.46;" xml:space="preserve">
<style type="text/css">
	.st0{fill:#FFFFFF;}
	.st1{fill:#D95B27;}
</style>
<polygon class="st0" points="198.89,28.86 226.79,15.01 223.54,58.26 205.86,98.97 182.14,127.56 220.75,140.12 202.61,163.37 
	177.12,163.37 166.8,147.09 159.82,143.84 130.29,161.51 80.59,171.28 57.04,156.86 127.14,125.7 137.03,123.84 130.29,113.61 
	145.87,113.14 157.5,101.98 170.98,72.68 "/>
<polygon class="st1" points="57.04,156.86 127.14,125.7 137.03,123.84 130.33,133.94 "/>
<polygon class="st1" points="145.87,113.14 163.38,106.36 186.57,77.69 198.89,28.86 170.98,72.68 157.5,101.98 "/>
<g>
	<path class="st0" d="M57.81,217.99h18.73c4.76,0.05,8.33,1.28,10.71,3.7c2.41,2.44,3.62,5.67,3.62,9.69
		c0.05,2.05-0.43,4.02-1.43,5.89c-0.51,0.89-1.24,1.73-2.19,2.53c-0.95,0.84-2.12,1.61-3.51,2.29v0.14
		c2.64,0.71,4.63,2.13,5.99,4.28c1.26,2.21,1.89,4.62,1.89,7.22c-0.05,4.31-1.36,7.72-3.91,10.23c-2.54,2.62-5.73,3.94-9.53,3.94
		H57.81V217.99z M65.13,224.7v14.34h10.58c2.68,0,4.66-0.72,5.91-2.17c1.28-1.32,1.93-3,1.93-5.02s-0.65-3.73-1.93-5.12
		c-1.26-1.31-3.23-1.99-5.91-2.03H65.13z M65.13,245.75v15.03h11.3c2.73-0.05,4.72-0.81,5.98-2.29c1.27-1.47,1.89-3.21,1.89-5.21
		c0-2.07-0.63-3.82-1.89-5.29c-1.26-1.44-3.25-2.18-5.98-2.22H65.13z"/>
	<path class="st0" d="M100.56,217.99h6.9l13.86,32.53l13.59-32.53h6.93v49.91h-7.33v-31.13h-0.16l-10.12,23.97h-6.1l-10.12-23.97
		h-0.13v31.13h-7.33V217.99z"/>
</g>
<g>
	<path class="st0" d="M153.61,255.8c3.85,3.27,8.42,4.93,13.74,4.97c6.28-0.09,9.47-2.41,9.55-6.95c0.05-3.72-2.05-5.97-6.3-6.72
		c-1.94-0.27-4.07-0.58-6.4-0.92c-4.15-0.71-7.31-2.29-9.48-4.76c-2.24-2.53-3.35-5.62-3.35-9.25c0-4.36,1.4-7.87,4.21-10.55
		c2.72-2.65,6.57-3.99,11.56-4.04c6.01,0.14,11.23,1.86,15.67,5.16l-4.07,6.21c-3.63-2.46-7.62-3.74-11.98-3.83
		c-2.25,0-4.13,0.58-5.64,1.75c-1.57,1.21-2.37,3.01-2.42,5.41c0,1.44,0.54,2.74,1.62,3.91c1.08,1.19,2.82,2.01,5.2,2.46
		c1.33,0.23,3.15,0.49,5.44,0.79c4.53,0.64,7.88,2.32,10.05,5.03c2.15,2.67,3.22,5.78,3.22,9.32c-0.25,9.55-5.9,14.39-16.97,14.52
		c-7.15,0-13.3-2.27-18.45-6.81L153.61,255.8z"/>
	<path class="st0" d="M226.79,253.96c-1.06,4.62-3.08,8.18-6.07,10.67c-3.07,2.45-6.71,3.69-10.91,3.69
		c-3.8-0.09-6.97-1.05-9.52-2.88c-2.59-1.76-4.46-3.79-5.64-6.09c-0.35-0.75-0.67-1.47-0.96-2.16c-0.26-0.71-0.49-1.6-0.66-2.67
		c-0.33-2.01-0.5-5.86-0.5-11.57c0-5.8,0.17-9.68,0.5-11.64c0.35-1.96,0.89-3.55,1.62-4.76c1.18-2.3,3.06-4.36,5.64-6.16
		c2.54-1.83,5.72-2.76,9.52-2.81c4.67,0.05,8.47,1.47,11.41,4.27c2.93,2.83,4.79,6.33,5.57,10.5h-7.77
		c-0.59-2.01-1.69-3.73-3.25-5.15c-1.64-1.35-3.63-2.04-5.98-2.09c-1.72,0.05-3.21,0.4-4.45,1.06c-1.27,0.68-2.28,1.54-3.06,2.57
		c-0.95,1.08-1.59,2.46-1.89,4.15c-0.35,1.78-0.52,5.13-0.52,10.05c0,4.92,0.17,8.25,0.52,9.98c0.31,1.73,0.95,3.14,1.89,4.22
		c0.78,1.03,1.79,1.86,3.06,2.5c1.24,0.75,2.73,1.13,4.45,1.13c4.12,0,7.2-2.27,9.24-6.82H226.79z"/>
</g>
</svg>
